<svg class="emoji-btn__inactive" width="24" height="24" viewBox="0 0 24 24" fill="none" xmlns="http://www.w3.org/2000/svg">
								<path d="M12 3C13.6267 3 15.13 3.40333 16.51 4.21C17.89 5.01667 18.9833 6.11 19.79 7.49C20.5967 8.87 21 10.3733 21 12C21 13.6267 20.5967 15.13 19.79 16.51C18.9833 17.89 17.89 18.9833 16.51 19.79C15.13 20.5967 13.6267 21 12 21C10.3733 21 8.87 20.5967 7.49 19.79C6.11 18.9833 5.01667 17.89 4.21 16.51C3.40333 15.13 3 13.6267 3 12C3 10.3733 3.40333 8.87 4.21 7.49C5.01667 6.11 6.11 5.01667 7.49 4.21C8.87 3.40333 10.3733 3 12 3ZM12 4.5C10.64 4.5 9.38667 4.83667 8.24 5.51C7.09333 6.18333 6.18333 7.09333 5.51 8.24C4.83667 9.38667 4.5 10.64 4.5 12C4.5 13.36 4.83667 14.6133 5.51 15.76C6.18333 16.9067 7.09333 17.8167 8.24 18.49C9.38667 19.1633 10.64 19.5 12 19.5C13.36 19.5 14.6133 19.1633 15.76 18.49C16.9067 17.8167 17.8167 16.9067 18.49 15.76C19.1633 14.6133 19.5 13.36 19.5 12C19.5 10.64 19.1633 9.38667 18.49 8.24C17.8167 7.09333 16.9067 6.18333 15.76 5.51C14.6133 4.83667 13.36 4.5 12 4.5ZM9.5 11.5C9.22667 11.5 8.97333 11.4333 8.74 11.3C8.51333 11.1667 8.33333 10.9867 8.2 10.76C8.06667 10.5267 8 10.2733 8 10C8 9.72667 8.06667 9.47667 8.2 9.25C8.33333 9.01667 8.51333 8.83333 8.74 8.7C8.97333 8.56667 9.22667 8.5 9.5 8.5C9.77333 8.5 10.0233 8.56667 10.25 8.7C10.4833 8.83333 10.6667 9.01667 10.8 9.25C10.9333 9.47667 11 9.72667 11 10C11 10.2733 10.9333 10.5267 10.8 10.76C10.6667 10.9867 10.4833 11.1667 10.25 11.3C10.0233 11.4333 9.77333 11.5 9.5 11.5ZM14.5 11.5C14.2267 11.5 13.9733 11.4333 13.74 11.3C13.5133 11.1667 13.3333 10.9867 13.2 10.76C13.0667 10.5267 13 10.2733 13 10C13 9.72667 13.0667 9.47667 13.2 9.25C13.3333 9.01667 13.5133 8.83333 13.74 8.7C13.9733 8.56667 14.2267 8.5 14.5 8.5C14.7733 8.5 15.0233 8.56667 15.25 8.7C15.4833 8.83333 15.6667 9.01667 15.8 9.25C15.9333 9.47667 16 9.72667 16 10C16 10.2733 15.9333 10.5267 15.8 10.76C15.6667 10.9867 15.4833 11.1667 15.25 11.3C15.0233 11.4333 14.7733 11.5 14.5 11.5ZM12 16.7C11.1067 16.7 10.3167 16.5267 9.63 16.18C8.94333 15.8267 8.41667 15.3967 8.05 14.89C7.68333 14.3767 7.5 13.8967 7.5 13.45C7.5 13.2433 7.57 13.0667 7.71 12.92C7.85667 12.7733 8.03667 12.7 8.25 12.7C8.42333 12.7 8.57667 12.7533 8.71 12.86C8.84333 12.96 8.93 13.0933 8.97 13.26C9.06333 13.6333 9.26333 13.97 9.57 14.27C9.87667 14.5633 10.2467 14.7933 10.68 14.96C11.1133 15.12 11.5533 15.2 12 15.2C12.4133 15.2 12.84 15.1167 13.28 14.95C13.72 14.7833 14.1 14.5533 14.42 14.26C14.74 13.9667 14.9433 13.6367 15.03 13.27C15.07 13.1033 15.1567 12.9667 15.29 12.86C15.4233 12.7533 15.5767 12.7 15.75 12.7C15.9633 12.7 16.14 12.7733 16.28 12.92C16.4267 13.0667 16.5 13.2433 16.5 13.45C16.5 13.87 16.3167 14.3367 15.95 14.85C15.59 15.3633 15.0667 15.8 14.38 16.16C13.7 16.52 12.9067 16.7 12 16.7Z" fill="currentColor"></path>
							</svg>